<svg width="275" height="275" viewBox="0 0 275 275" fill="none" xmlns="http://www.w3.org/2000/svg">
<rect width="275" height="275" fill="#353535"/>
<path d="M113.125 186.25V80.625L210.625 64.375V170" stroke="#B9B9B9" stroke-width="6" stroke-linecap="round" stroke-linejoin="round"/>
<path d="M88.75 210.625C102.212 210.625 113.125 199.712 113.125 186.25C113.125 172.788 102.212 161.875 88.75 161.875C75.2881 161.875 64.375 172.788 64.375 186.25C64.375 199.712 75.2881 210.625 88.75 210.625Z" stroke="#B9B9B9" stroke-width="6" stroke-linecap="round" stroke-linejoin="round"/>
<path d="M186.25 194.375C199.712 194.375 210.625 183.462 210.625 170C210.625 156.538 199.712 145.625 186.25 145.625C172.788 145.625 161.875 156.538 161.875 170C161.875 183.462 172.788 194.375 186.25 194.375Z" stroke="#B9B9B9" stroke-width="6" stroke-linecap="round" stroke-linejoin="round"/>
</svg>
